# xmcd
#
# Track frame offsets:
#	183
#	12540
#	27008
#	46165
#	58950
#	70593
#	84400
#	98013
#	109910
#	124585
#	136513
#	149243
#	164573
#	179330
#	193708
#	205835
#
# Disc length: 2927 seconds
#
# Revision: 1
# Processed by: cddbd v1.5.2PL0 Copyright (c) Steve Scherf et al.
# Submitted via: audiograbber 1.83.01
#
DISCID=e00b6d10
DTITLE=Various Artist - Country Women
DYEAR=1997
DGENRE=Country
TTITLE0=Patsy Cline - Crazy
TTITLE1=Tammy Wynette - Gentle on my mind
TTITLE2=Bobbie Gentry - Ode to Billy Joe
TTITLE3=Billy Jo Spears - 57 Chevrolet
TTITLE4=Crystal Gayle - Don't it make my brown eyes blue
TTITLE5=Tanya Tucker - If your heart ain't busy tonight
TTITLE6=Loretta Lynn - Coal miner's daughter
TTITLE7=Wanda Jackson - Walkin' after midnight
TTITLE8=Jeanne Pruett - Satin sheets
TTITLE9=Skeeter Davis - The end of the world
TTITLE10=Nanci Griffith - Wing and the wheel
TTITLE11=Kelly Willis - Whatever way the wind blows
TTITLE12=Roseanne Cash - Seven year ache
TTITLE13=Heather Miles - When the tingle becomes a chill
TTITLE14=Brenda Lee - The crying game
TTITLE15=Lynn Anderson - Rose Garden
EXTD=
EXTT0=
EXTT1=
EXTT2=
EXTT3=
EXTT4=
EXTT5=
EXTT6=
EXTT7=
EXTT8=
EXTT9=
EXTT10=
EXTT11=
EXTT12=
EXTT13=
EXTT14=
EXTT15=
PLAYORDER=
